<?xml version="1.0" encoding="UTF-8"?>
<svg version="1.1" xmlns="http://www.w3.org/2000/svg" width="173" height="193">
<path d="M0 0 C1.78919357 -0.00143509 1.78919357 -0.00143509 3.61453247 -0.00289917 C6.12046359 -0.00357519 8.62639653 -0.00176154 11.13232422 0.00244141 C14.92810072 0.00778825 18.72375841 0.00248146 22.51953125 -0.00390625 C24.97135442 -0.00324518 27.42317752 -0.00196343 29.875 0 C30.99002899 -0.00202423 32.10505798 -0.00404846 33.25387573 -0.00613403 C57.03443706 0.06318543 79.88529591 3.51723449 98.0703125 20.1328125 C98.91207031 20.89464844 99.75382812 21.65648438 100.62109375 22.44140625 C106.1869483 27.72690664 110.76874093 33.15388072 114.0703125 40.1328125 C114.0703125 40.7928125 114.0703125 41.4528125 114.0703125 42.1328125 C110.19691271 42.42441661 106.3263273 42.60113947 102.4453125 42.7578125 C101.35089844 42.84160156 100.25648438 42.92539062 99.12890625 43.01171875 C95.84180566 43.11132786 93.22942512 43.06449067 90.0703125 42.1328125 C87.2652259 39.15188465 85.76620445 35.8239551 84.0703125 32.1328125 C75.67824596 20.88387225 64.87927434 14.39876636 51.0703125 12.1328125 C48.34605419 12.05100558 45.64899944 12.01615684 42.92578125 12.03515625 C42.15599442 12.0365712 41.38620758 12.03798615 40.59309387 12.03944397 C38.14795962 12.04501644 35.70291882 12.05756379 33.2578125 12.0703125 C31.59440237 12.07533106 29.9309908 12.07989335 28.26757812 12.08398438 C24.20175843 12.09412358 20.13613939 12.11370418 16.0703125 12.1328125 C15.7403125 22.0328125 15.4103125 31.9328125 15.0703125 42.1328125 C8.1403125 42.1328125 1.2103125 42.1328125 -5.9296875 42.1328125 C-5.98576172 39.74675781 -5.98576172 39.74675781 -6.04296875 37.3125 C-6.1086433 35.21091451 -6.17509012 33.10935305 -6.2421875 31.0078125 C-6.26474609 29.96109375 -6.28730469 28.914375 -6.31054688 27.8359375 C-6.57683901 20.06211145 -6.57683901 20.06211145 -9.9296875 13.1328125 C-14.85043548 10.33474012 -19.39370957 9.6184246 -24.9296875 9.1328125 C-24.9296875 6.4928125 -24.9296875 3.8528125 -24.9296875 1.1328125 C-16.60065851 0.31128105 -8.36693589 -0.01513444 0 0 Z " fill="#000000" transform="translate(44.9296875,19.8671875)"/>
<path d="M0 0 C6.93 0 13.86 0 21 0 C21.75 7.125 21.75 7.125 21.95605469 9.33251953 C22.69643086 15.50846288 24.99381358 19.39505087 29.8125 23.25 C40.77786466 29.2702002 55.14356988 28.26797973 67 25.4375 C77.36434845 22.2544835 85.67191607 16.85628972 92 8 C92.2880249 7.33403809 92.5760498 6.66807617 92.87280273 5.98193359 C94.03793741 3.54252572 95.02606911 1.86073931 97 0 C101.13473284 -1.0051179 105.08854635 -0.75674528 109.3125 -0.5 C110.99569336 -0.44585937 110.99569336 -0.44585937 112.71289062 -0.390625 C115.47874621 -0.29646821 118.23762241 -0.16512661 121 0 C117.67871934 7.18403814 113.54839438 12.34316794 108 18 C107.33226562 18.70382813 106.66453125 19.40765625 105.9765625 20.1328125 C101.61220042 24.39684441 96.87207058 27.43934635 91.5 30.25 C90.91468506 30.56727051 90.32937012 30.88454102 89.72631836 31.21142578 C75.58397797 38.19181062 60.28065699 38.56529864 44.87109375 38.390625 C42.89999472 38.38314233 40.92888813 38.37745902 38.95777893 38.37347412 C33.83019594 38.35837699 28.70308367 38.31923731 23.57568359 38.2746582 C18.31940067 38.23335708 13.06303988 38.21538955 7.80664062 38.1953125 C-2.46244367 38.15272368 -12.73118233 38.08467149 -23 38 C-23 35.36 -23 32.72 -23 30 C-21.97519531 29.87882812 -20.95039063 29.75765625 -19.89453125 29.6328125 C-18.53381021 29.46389541 -17.1731355 29.2946048 -15.8125 29.125 C-15.13896484 29.04636719 -14.46542969 28.96773437 -13.77148438 28.88671875 C-8.10877304 28.25246381 -8.10877304 28.25246381 -3 26 C-0.68573183 20.54088275 -0.58992129 14.93005506 -0.375 9.0625 C-0.189375 4.5765625 -0.189375 4.5765625 0 0 Z " fill="#000000" transform="translate(39,130)"/>
<path d="M0 0 C10.23 0 20.46 0 31 0 C31 2.97 31 5.94 31 9 C30.01 9 29.02 9 28 9 C27.71125 8.360625 27.4225 7.72125 27.125 7.0625 C26.17176549 4.84793921 26.17176549 4.84793921 24 4 C21.9625237 3.77141886 19.91959697 3.58975722 17.875 3.4375 C15.93625 3.293125 13.9975 3.14875 12 3 C12 7.62 12 12.24 12 17 C14.31 16.34 16.62 15.68 19 15 C19.33 13.68 19.66 12.36 20 11 C20.99 11 21.98 11 23 11 C23 15.95 23 20.9 23 26 C22.01 26 21.02 26 20 26 C19.79375 25.38125 19.5875 24.7625 19.375 24.125 C17.4588867 21.16373399 15.29448105 20.98039516 12 20 C12.14026283 22.31284456 12.28735558 24.62527591 12.4375 26.9375 C12.51871094 28.22527344 12.59992187 29.51304688 12.68359375 30.83984375 C12.64919188 33.86023957 12.64919188 33.86023957 14 35 C21.21247541 35.78945734 21.21247541 35.78945734 27.625 33.125 C29.01380394 31.06441839 29.01380394 31.06441839 30 29 C30.99 29 31.98 29 33 29 C33.125 35.625 33.125 35.625 32 39 C21.44 39 10.88 39 0 39 C0 38.34 0 37.68 0 37 C1.32 36.34 2.64 35.68 4 35 C4.33 24.44 4.66 13.88 5 3 C3.35 2.67 1.7 2.34 0 2 C0 1.34 0 0.68 0 0 Z " fill="#010101" transform="translate(42,74)"/>
<path d="M0 0 C9.9 0 19.8 0 30 0 C30.33 2.97 30.66 5.94 31 9 C30.01 9 29.02 9 28 9 C27.71125 8.360625 27.4225 7.72125 27.125 7.0625 C26.17176549 4.84793921 26.17176549 4.84793921 24 4 C21.795636 3.77049681 19.58607827 3.58924067 17.375 3.4375 C15.27125 3.293125 13.1675 3.14875 11 3 C11 7.62 11 12.24 11 17 C15.95514502 16.12527407 15.95514502 16.12527407 19.4375 12.875 C19.623125 12.25625 19.80875 11.6375 20 11 C20.99 11 21.98 11 23 11 C23 15.95 23 20.9 23 26 C22.01 26 21.02 26 20 26 C19.814375 25.38125 19.62875 24.7625 19.4375 24.125 C17.28562767 20.94397134 14.62466237 20.80548053 11 20 C11.1141866 21.93816735 11.24173423 23.87555099 11.375 25.8125 C11.44460937 26.89144531 11.51421875 27.97039062 11.5859375 29.08203125 C11.81195733 32.18626186 11.81195733 32.18626186 14 35 C16.56095354 35.44115338 16.56095354 35.44115338 19.4375 35.3125 C20.88962891 35.30669922 20.88962891 35.30669922 22.37109375 35.30078125 C25.23008817 35.17631999 25.23008817 35.17631999 28 33 C29.19232613 30.94996045 29.19232613 30.94996045 30 29 C30.99 29 31.98 29 33 29 C32.505 33.95 32.505 33.95 32 39 C21.44 39 10.88 39 0 39 C0.33 38.01 0.66 37.02 1 36 C2.485 35.505 2.485 35.505 4 35 C4 24.77 4 14.54 4 4 C2.68 3.34 1.36 2.68 0 2 C0 1.34 0 0.68 0 0 Z " fill="#010101" transform="translate(79,74)"/>
<path d="M0 0 C3.87474457 -0.11668214 7.74903396 -0.18741231 11.625 -0.25 C13.26662109 -0.30027344 13.26662109 -0.30027344 14.94140625 -0.3515625 C21.25899979 -0.42813939 25.25623595 -0.37138667 30 4 C31.74144037 7.48288073 31.57855206 11.19996485 31 15 C27.97380269 19.18327275 25.0130264 20.93955211 20 22 C16.97752333 22.14369151 14.02975827 22.09181086 11 22 C11.33 26.62 11.66 31.24 12 36 C13.98 36.33 15.96 36.66 18 37 C18 37.66 18 38.32 18 39 C11.73 39 5.46 39 -1 39 C-1 38.34 -1 37.68 -1 37 C0.65 36.34 2.3 35.68 4 35 C4 24.77 4 14.54 4 4 C2.68 3.34 1.36 2.68 0 2 C0 1.34 0 0.68 0 0 Z M11 3 C11 7.95 11 12.9 11 18 C16.8860066 18.53437401 16.8860066 18.53437401 22.0625 16 C24.06092803 12.90565982 24.2962723 12.27321267 24 8.8125 C23.39412068 4.78312597 23.39412068 4.78312597 20 3 C16.97670744 2.7389212 14.04123758 2.91184819 11 3 Z " fill="#010101" transform="translate(116,74)"/>
</svg>
